<svg width="63" height="32" viewBox="0 0 63 32" fill="none" xmlns="http://www.w3.org/2000/svg">
<path d="M0 26.12C0 29.64 2.06949 32 5.17372 32C6.92483 32 8.07896 31.2 8.55654 29.72C8.63613 30.36 8.83512 31 9.15351 31.64H13.2925V13.16H6.04927V14H6.84523C7.72078 14 7.99937 14.36 7.99937 15.48V27.96C7.99937 29.48 7.56159 30.16 6.60644 30.16C5.69109 30.16 5.29311 29.52 5.29311 27.96V3.84C5.29311 2.28 5.73089 1.64 6.72584 1.64C7.60139 1.64 7.99937 2.32 7.99937 3.84V11.52H13.2925V5.96C13.2925 2.32 10.7056 0 6.72584 0C2.66646 0 0 2.36 0 5.96V26.12ZM15.2824 29.32C15.2824 30.44 15.0038 30.8 14.1282 30.8H13.8099V31.64H22.2868V30.8H21.5704C20.7347 30.8 20.4561 30.4 20.4561 29.32V15.08H21.65C22.7246 15.08 23.043 15.56 23.043 17.16V27.92C23.043 30 23.2021 30.92 23.6797 31.64H30.2464V30.8H29.8086C28.6545 30.8 28.2565 30.2 28.2565 28.48V18.88C28.2565 16.36 26.784 14.72 23.2817 14C26.9829 13.4 28.3361 11.32 28.3361 8.52V5.88C28.3361 2.32 26.1472 0.359999 22.1674 0.359999H13.8099V1.2H14.1282C15.0038 1.2 15.2824 1.56 15.2824 2.68V29.32ZM20.4561 13.16V2.28H21.3316C22.7644 2.28 23.1226 2.84 23.1226 5V10.36C23.1226 12.6 22.7644 13.16 21.3316 13.16H20.4561ZM29.8484 26.04C29.8484 29.64 32.5148 32 36.5742 32C40.5938 32 43.1807 29.64 43.1807 26.04V5.96C43.1807 2.36 40.5938 0 36.5742 0C32.5148 0 29.8484 2.36 29.8484 5.96V26.04ZM36.5742 30.36C35.5793 30.36 35.1415 29.68 35.1415 28.16V3.84C35.1415 2.32 35.5793 1.64 36.5742 1.64C37.4896 1.64 37.8876 2.28 37.8876 3.84V28.16C37.8876 29.72 37.4896 30.36 36.5742 30.36ZM46.9217 31.64H50.0259L53.3689 7.28H52.3342L55.518 31.64H58.7018L60.7713 4.52C61.0101 1.96 61.4479 1.2 62.602 1.2H63V0.359999H57.2691V1.2H57.4681C58.9008 1.2 59.3386 2.04 59.1794 4.44L57.7467 23.88L58.9406 23.84L55.8762 0.359999H52.8515L49.6279 23.84L50.7821 23.88L49.4289 2.84C49.3493 1.64 49.6279 1.2 50.5035 1.2H50.981V0.359999H42.4643V1.2H43.0215C44.0164 1.2 44.2154 1.48 44.3348 2.92L46.9217 31.64Z" fill="white"/>
</svg>
