<svg width="261" height="146" viewBox="0 0 261 146" fill="none" xmlns="http://www.w3.org/2000/svg">
<path d="M9 105.317C9 118.297 16.6867 127 28.2167 127C34.7208 127 39.0076 124.05 40.7814 118.592C41.0771 120.952 41.8162 123.312 42.9987 125.672H58.3721V57.5275H31.4687V60.625H34.4251C37.6772 60.625 38.7119 61.9525 38.7119 66.0825V112.102C38.7119 117.708 37.0859 120.215 33.5382 120.215C30.1383 120.215 28.6601 117.855 28.6601 112.102V23.16C28.6601 17.4075 30.2862 15.0475 33.9817 15.0475C37.2337 15.0475 38.7119 17.555 38.7119 23.16V51.48H58.3721V30.9775C58.3721 17.555 48.7637 9 33.9817 9C18.904 9 9 17.7025 9 30.9775V105.317Z" fill="white"/>
<path d="M65.7633 118.445C65.7633 122.575 64.7286 123.902 61.4765 123.902H60.2939V127H91.7797V123.902H89.119C86.0147 123.902 84.98 122.427 84.98 118.445V65.935H89.4146C93.4058 65.935 94.5883 67.705 94.5883 73.605V113.283C94.5883 120.953 95.1796 124.345 96.9534 127H121.344V123.902H119.718C115.431 123.902 113.953 121.69 113.953 115.347V79.9475C113.953 70.655 108.483 64.6075 95.4752 61.9525C109.223 59.74 114.248 52.07 114.248 41.745V32.01C114.248 18.8825 106.118 11.655 91.3363 11.655H60.2939V14.7525H61.4765C64.7286 14.7525 65.7633 16.08 65.7633 20.21V118.445ZM84.98 58.855V18.735H88.232C93.5536 18.735 94.884 20.8 94.884 28.765V48.53C94.884 56.79 93.5536 58.855 88.232 58.855H84.98Z" fill="white"/>
<path d="M183.281 127H194.811L207.227 37.1725H203.384L215.21 127H227.035L234.722 26.995C235.609 17.555 237.235 14.7525 241.522 14.7525H243V11.655H221.714V14.7525H222.453C227.775 14.7525 229.401 17.85 228.809 26.7L223.488 98.385L227.922 98.2375L216.54 11.655H205.306L193.332 98.2375L197.619 98.385L192.593 20.8C192.298 16.375 193.332 14.7525 196.584 14.7525H198.358V11.655H166.725V14.7525H168.794C172.49 14.7525 173.229 15.785 173.672 21.095L183.281 127Z" fill="white"/>
<path d="M119.866 105.022C119.866 118.297 129.77 127 144.847 127C159.777 127 169.386 118.297 169.386 105.022V30.9775C169.386 17.7025 159.777 9 144.847 9C129.77 9 119.866 17.7025 119.866 30.9775V105.022ZM144.847 120.952C141.152 120.952 139.526 118.445 139.526 112.84V23.16C139.526 17.555 141.152 15.0475 144.847 15.0475C148.247 15.0475 149.725 17.4075 149.725 23.16V112.84C149.725 118.592 148.247 120.952 144.847 120.952Z" fill="white"/>
</svg>
